<?xml version="1.0" standalone="no"?>
<!DOCTYPE svg PUBLIC "-//W3C//DTD SVG 20010904//EN"
 "http://www.w3.org/TR/2001/REC-SVG-20010904/DTD/svg10.dtd">
<svg version="1.0" xmlns="http://www.w3.org/2000/svg"
 width="666.000000pt" height="486.000000pt" viewBox="0 0 666.000000 486.000000"
 preserveAspectRatio="xMidYMid meet">

<g transform="translate(0.000000,486.000000) scale(0.100000,-0.100000)"
fill="#000000" stroke="none">
<path d="M2075 2812 c-117 -105 -319 -223 -435 -253 -40 -10 -49 -16 -43 -28
4 -9 9 -191 11 -405 l3 -389 -28 -29 c-14 -15 -30 -28 -33 -28 -17 0 -145 129
-182 183 -53 78 -78 151 -85 251 -12 176 40 321 167 458 73 79 172 152 253
187 72 31 61 45 -30 38 -274 -21 -581 -231 -704 -482 -51 -104 -69 -179 -69
-286 0 -173 58 -317 175 -435 149 -149 339 -213 598 -201 129 6 252 32 345 73
l52 23 0 -48 c0 -47 -1 -49 -33 -55 -85 -16 -110 -113 -38 -151 49 -25 98 -20
132 14 29 29 29 30 29 154 l0 125 42 35 c29 25 39 39 35 51 -7 17 -17 16 -64
-1 -10 -4 -13 93 -13 464 l0 469 79 12 c78 11 165 46 190 75 10 13 4 17 -39
26 -98 21 -182 75 -233 150 l-32 49 -50 -46z m-52 -220 l47 -25 0 -492 0 -493
-93 -7 c-126 -9 -308 17 -307 44 0 3 59 55 130 115 l130 109 0 394 0 394 23
-6 c12 -4 43 -19 70 -33z"/>
<path d="M2535 2470 c-19 -31 -208 -100 -273 -100 -23 0 -32 -33 -12 -45 6 -4
10 -99 10 -252 l0 -245 -25 -30 c-14 -16 -25 -33 -25 -37 0 -4 35 -15 78 -24
91 -20 190 -65 249 -113 l43 -35 53 40 c61 46 140 85 213 103 l50 13 -18 30
c-16 27 -18 56 -18 286 0 209 3 259 15 275 8 10 15 22 15 25 0 3 -26 11 -57
18 -47 11 -184 58 -274 96 -10 3 -20 1 -24 -5z m88 -187 c16 -5 17 -26 17
-253 l0 -248 -57 15 c-32 8 -70 21 -85 29 l-28 15 0 249 0 250 68 -26 c37 -14
75 -28 85 -31z"/>
<path d="M3028 2426 c-85 -49 -103 -66 -74 -66 8 0 26 -14 40 -31 l26 -31 0
-275 0 -275 -30 4 c-16 3 -30 4 -30 4 0 -1 28 -23 63 -49 34 -26 73 -63 87
-82 14 -19 27 -35 30 -35 3 0 16 16 29 36 14 19 53 56 88 82 63 46 63 47 33
50 l-30 3 0 275 c0 311 -7 290 88 254 29 -11 73 -20 98 -20 39 0 51 5 80 34
19 19 34 39 34 45 0 6 -14 18 -32 27 -17 9 -53 36 -79 61 l-48 45 -73 -50 -73
-49 -45 34 c-88 68 -84 67 -182 9z"/>
<path d="M3852 2455 c-45 -32 -133 -65 -209 -78 -49 -9 -63 -15 -63 -28 0 -10
5 -21 10 -24 6 -4 10 -99 10 -252 l0 -245 -25 -30 c-14 -16 -25 -33 -25 -37 0
-4 35 -15 78 -24 90 -20 178 -59 245 -110 l47 -37 48 37 c56 43 148 87 218
105 l50 13 -18 30 c-16 27 -18 56 -18 285 0 218 2 259 16 278 9 13 14 25 13
26 -2 2 -35 11 -74 20 -38 10 -108 32 -155 50 -47 18 -92 36 -100 39 -8 3 -30
-5 -48 -18z m111 -172 c16 -5 17 -26 17 -253 l0 -248 -57 15 c-32 8 -70 21
-85 29 l-28 15 0 249 0 250 68 -26 c37 -14 75 -28 85 -31z"/>
<path d="M4755 2459 c-51 -34 -143 -79 -163 -79 -11 0 -25 7 -32 14 -15 18
-103 76 -116 76 -6 0 -47 -23 -93 -51 l-84 -52 31 -13 c58 -24 62 -45 62 -334
l0 -260 -30 0 c-41 0 -37 -10 16 -43 24 -16 63 -50 85 -76 l41 -48 62 61 c33
34 75 71 91 83 l30 22 -32 0 -33 1 0 258 0 258 39 22 c48 27 55 27 91 0 l30
-22 0 -257 0 -258 -32 -3 -31 -3 53 -40 c30 -22 68 -59 85 -82 16 -23 32 -42
35 -42 3 -1 16 15 29 35 14 19 53 56 88 82 63 47 63 47 33 50 l-31 3 3 282 c2
155 7 289 11 298 7 13 -6 24 -60 54 -37 20 -86 48 -108 61 l-41 23 -29 -20z"/>
<path d="M5295 2440 c-44 -22 -110 -46 -147 -56 -53 -13 -68 -20 -68 -34 0
-11 5 -22 10 -25 6 -4 10 -105 10 -269 0 -222 -2 -266 -15 -276 -23 -19 -18
-28 18 -35 52 -12 147 -58 221 -109 l69 -48 63 63 64 63 52 -50 c92 -88 79
-88 169 2 43 43 79 82 79 86 0 5 -11 8 -25 8 -22 0 -91 23 -97 32 -1 2 -5 133
-8 292 l-5 288 -155 54 c-85 29 -155 53 -155 53 0 0 -36 -18 -80 -39z m103
-140 l62 -23 0 -243 0 -243 -72 39 -73 39 -3 232 c-2 184 0 230 10 227 7 -3
41 -15 76 -28z"/>
<path d="M5842 1644 c-84 -35 -59 -164 32 -164 78 0 120 88 67 144 -28 30 -60
37 -99 20z m74 -22 c52 -34 25 -122 -38 -122 -56 0 -86 60 -52 108 15 22 66
30 90 14z"/>
<path d="M5847 1603 c-11 -10 -8 -73 3 -73 6 0 10 7 10 17 0 15 1 15 18 0 25
-23 27 -22 26 14 -1 38 -36 64 -57 42z m38 -23 c-3 -5 -10 -10 -16 -10 -5 0
-9 5 -9 10 0 6 7 10 16 10 8 0 12 -4 9 -10z"/>
<path d="M2785 1443 c-27 -15 -84 -37 -125 -49 -41 -12 -76 -27 -78 -33 -2 -6
1 -11 7 -11 8 0 11 -95 11 -314 0 -270 -2 -315 -15 -326 -13 -11 0 -21 92 -66
59 -29 127 -69 151 -89 l43 -37 133 88 c126 84 133 90 120 109 -8 11 -14 32
-14 47 0 16 -5 28 -10 28 -6 0 -55 -23 -110 -50 l-100 -50 0 304 0 304 47 -14
c89 -27 156 -9 194 53 12 19 20 35 18 36 -2 2 -40 10 -85 19 -44 9 -109 30
-143 47 -35 17 -68 31 -75 31 -6 -1 -33 -13 -61 -27z m35 -415 c0 -235 -3
-299 -12 -296 -10 4 -14 76 -16 306 -2 266 -1 301 13 296 13 -5 15 -47 15
-306z"/>
<path d="M3365 1194 c-31 -25 -84 -46 -145 -59 -46 -10 -54 -15 -51 -31 3 -10
6 -104 8 -208 4 -179 3 -192 -17 -218 -11 -15 -20 -29 -20 -32 0 -2 24 -9 53
-15 68 -15 145 -51 189 -89 l35 -31 24 26 c26 28 152 93 181 93 25 0 22 9 -16
52 l-32 37 -74 -28 -74 -29 -43 21 c-41 20 -43 23 -43 67 0 45 2 49 83 126 45
43 113 106 150 140 73 65 83 91 40 99 -59 11 -130 38 -176 66 -55 34 -47 32
-72 13z m117 -163 c4 -4 -26 -40 -67 -81 l-75 -74 0 106 0 106 68 -25 c37 -14
70 -29 74 -32z"/>
<path d="M3725 1165 c-38 -24 -64 -45 -57 -45 7 0 24 -11 37 -25 25 -24 25
-24 25 -235 l0 -210 -22 0 c-22 -1 -21 -2 7 -22 17 -12 47 -40 67 -61 l37 -39
28 32 c15 18 45 46 67 61 32 24 35 29 18 29 -22 0 -22 2 -22 215 0 237 -3 228
63 200 56 -23 119 -20 145 8 29 31 28 43 -5 61 -16 8 -43 29 -60 46 l-33 31
-56 -36 -56 -36 -52 35 c-28 20 -53 36 -56 36 -3 0 -36 -20 -75 -45z"/>
<path d="M4375 1201 c-12 -20 -86 -52 -149 -66 -44 -9 -60 -16 -56 -26 3 -8 6
-103 8 -212 3 -189 2 -199 -18 -225 l-22 -27 64 -16 c75 -19 135 -48 181 -89
l34 -29 24 25 c26 27 152 94 179 94 26 0 30 10 14 35 -12 19 -14 59 -12 226 2
112 7 212 12 222 6 14 4 17 -15 17 -13 1 -64 17 -114 36 -120 47 -122 47 -130
35z m77 -147 c4 -3 8 -22 8 -42 0 -33 -8 -46 -60 -97 l-60 -59 0 122 0 122 52
-21 c29 -11 56 -23 60 -25z m8 -274 c0 -125 0 -125 -77 -90 -38 17 -43 23 -43
52 0 26 11 44 57 90 32 32 59 58 60 58 2 0 3 -49 3 -110z"/>
</g>
</svg>
