<svg width="151" height="69" viewBox="0 0 151 69" fill="none" xmlns="http://www.w3.org/2000/svg">
<path d="M35.032 1.35217C31.5437 4.43909 25.5212 7.9082 22.0627 8.79017C20.8701 9.08416 20.6018 9.26056 20.7807 9.61335C20.8999 9.87794 21.049 15.2286 21.1086 21.52L21.1981 32.9563L20.3633 33.8089C19.9459 34.2499 19.4688 34.6321 19.3794 34.6321C18.8725 34.6321 15.0563 30.8396 13.9532 29.252C12.373 26.9589 11.6276 24.8128 11.4189 21.8728C11.0612 16.6986 12.6115 12.4357 16.3979 8.40798C18.5744 6.08544 21.526 3.9393 23.941 2.91032C26.0876 1.99895 25.7597 1.58736 23.0466 1.79316C14.8774 2.41054 5.72437 8.58438 2.0572 15.9636C0.53666 19.0211 0 21.226 0 24.3718C0 29.4578 1.72924 33.6913 5.21753 37.1604C9.65988 41.5409 15.3246 43.4225 23.0466 43.0697C26.8926 42.8933 30.5598 42.1289 33.3325 40.9235L34.8829 40.2474V41.6585C34.8829 43.0403 34.8531 43.0991 33.899 43.2755C31.3648 43.7459 30.6194 46.5976 32.7661 47.7148C34.227 48.4497 35.6879 48.3027 36.7016 47.3032C37.5662 46.4506 37.5662 46.4212 37.5662 42.7757V39.1008L38.8184 38.0718C39.683 37.3368 39.9812 36.9252 39.8619 36.5724C39.6532 36.0727 39.3551 36.1021 37.9538 36.6018C37.6556 36.7194 37.5662 33.8677 37.5662 22.9606V9.17236L39.9215 8.81957C42.2471 8.49618 44.8409 7.46721 45.5863 6.61463C45.8844 6.23244 45.7055 6.11484 44.4235 5.85025C41.5017 5.23286 38.9973 3.64531 37.4767 1.44036L36.5227 -0.000198364L35.032 1.35217ZM33.4816 7.82L34.8829 8.55498V23.0194V37.5132L32.1101 37.719C28.3535 37.9836 22.9273 37.2192 22.9571 36.4255C22.9571 36.3373 24.7162 34.8085 26.833 33.0445L30.7089 29.84V18.2567V6.67343L31.3946 6.84982C31.7524 6.96742 32.6766 7.40841 33.4816 7.82Z" fill="#F4F6F6"/>
<path d="M48.7466 11.4069C48.1801 12.3183 42.5452 14.3468 40.6072 14.3468C39.9215 14.3468 39.6532 15.317 40.2495 15.6698C40.4283 15.7874 40.5476 18.5803 40.5476 23.0784V30.2812L39.8022 31.1632C39.3848 31.6336 39.0569 32.1334 39.0569 32.2509C39.0569 32.3685 40.1004 32.6919 41.3824 32.9565C44.0955 33.5445 47.0472 34.8675 48.8062 36.2786L50.0882 37.3076L51.6684 36.1316C53.4871 34.7793 55.8424 33.6327 58.0189 33.1035L59.5096 32.7213L58.9729 31.8394C58.4959 31.0456 58.4363 30.193 58.4363 23.4312C58.4363 17.2867 58.5257 15.8168 58.8835 15.3464C59.122 15.0524 59.3307 14.6996 59.3307 14.6114C59.3307 14.5232 58.5555 14.288 57.6313 14.0822C56.23 13.7588 52.1454 12.3771 49.4621 11.2599C49.164 11.1717 48.8658 11.2305 48.7466 11.4069ZM51.3702 16.9046C51.8473 17.0515 51.8771 17.6689 51.8771 24.3426V31.6336L50.1777 31.1926C49.2236 30.9574 48.0907 30.5752 47.6434 30.34L46.8086 29.899V22.5786V15.2288L48.836 15.9932C49.9392 16.4048 51.0721 16.8164 51.3702 16.9046Z" fill="#F4F6F6"/>
<path d="M63.4451 12.7006C60.9109 14.1411 60.3743 14.6409 61.2389 14.6409C61.4774 14.6409 62.014 15.0525 62.4314 15.5523L63.2066 16.4637V24.5485V32.6332L62.3122 32.5156C61.8352 32.4274 61.4178 32.398 61.4178 32.398C61.4178 32.4274 62.2526 33.0742 63.2961 33.8386C64.3098 34.603 65.4725 35.6908 65.8899 36.2493C66.3073 36.8079 66.6949 37.2783 66.7844 37.2783C66.8738 37.2783 67.2614 36.8079 67.649 36.2199C68.0664 35.6614 69.2291 34.5736 70.2726 33.8092C72.151 32.4568 72.151 32.4274 71.2565 32.3392L70.3621 32.2511V24.1663C70.3621 15.0231 70.1534 15.6405 72.9858 16.6989C73.8504 17.0222 75.1622 17.2868 75.9076 17.2868C77.0703 17.2868 77.4281 17.1398 78.2927 16.2873C78.8592 15.7287 79.3064 15.1407 79.3064 14.9643C79.3064 14.7879 78.889 14.4351 78.3524 14.1705C77.8455 13.9059 76.7722 13.1122 75.997 12.3772L74.5659 11.0542L72.3895 12.5242L70.213 13.9647L68.8714 12.9652C66.2477 10.966 66.367 10.9954 63.4451 12.7006Z" fill="#F4F6F6"/>
<path d="M88.0123 11.848C86.6706 12.7888 84.0469 13.7589 81.781 14.1411C80.3201 14.4057 79.9027 14.5821 79.9027 14.9643C79.9027 15.2583 80.0518 15.5817 80.2009 15.6699C80.3798 15.7875 80.499 18.5804 80.499 23.0785V30.2813L79.7537 31.1633C79.3363 31.6337 79.0083 32.1335 79.0083 32.2511C79.0083 32.3686 80.0518 32.692 81.3338 32.9566C84.0171 33.5446 86.6408 34.6912 88.6384 36.1905L90.0396 37.2783L91.4707 36.1905C93.1403 34.9264 95.8833 33.6328 97.9703 33.1036L99.461 32.7214L98.9243 31.8395C98.4473 31.0457 98.3877 30.1931 98.3877 23.4607C98.3877 17.0516 98.4473 15.8463 98.8647 15.2877C99.133 14.9055 99.2821 14.5527 99.2523 14.5233C99.1927 14.4645 98.2088 14.1999 97.046 13.9353C95.9131 13.6413 93.8261 12.9946 92.4248 12.4654C91.0235 11.9362 89.6819 11.407 89.4434 11.3188C89.2048 11.2306 88.5489 11.4658 88.0123 11.848ZM91.3217 16.9047C91.7987 17.0516 91.8285 17.669 91.8285 24.3427V31.6337L90.1291 31.1927C89.175 30.9575 88.0421 30.5753 87.5949 30.3401L86.7601 29.8991V22.5787V15.2289L88.7874 15.9933C89.8906 16.4049 91.0235 16.8165 91.3217 16.9047Z" fill="#F4F6F6"/>
<path d="M114.935 11.7302C113.414 12.7297 110.671 14.0527 110.075 14.0527C109.747 14.0527 109.33 13.8469 109.121 13.6411C108.674 13.1119 106.05 11.4068 105.662 11.4068C105.484 11.4068 104.261 12.083 102.89 12.9061L100.385 14.4349L101.31 14.8171C103.039 15.5227 103.158 16.14 103.158 24.6364V32.2802H102.264C101.041 32.2802 101.16 32.5742 102.741 33.5444C103.456 34.0148 104.619 35.0144 105.275 35.7787L106.497 37.1899L108.346 35.3965C109.33 34.397 110.582 33.3092 111.059 32.9564L111.953 32.3096H110.999L110.015 32.2802V24.6952V17.1102L111.178 16.4634C112.609 15.6697 112.818 15.6697 113.891 16.4634L114.786 17.1102V24.6658V32.2508L113.832 32.339L112.907 32.4272L114.487 33.6032C115.382 34.25 116.515 35.3377 117.022 36.0139C117.499 36.6901 117.976 37.2487 118.065 37.2487C118.155 37.2781 118.542 36.8077 118.93 36.2197C119.347 35.6611 120.51 34.5734 121.554 33.809C123.432 32.4272 123.432 32.4272 122.537 32.339L121.613 32.2508L121.703 23.9602C121.762 19.4034 121.911 15.4639 122.031 15.1993C122.239 14.8171 121.852 14.4937 120.242 13.6117C119.139 13.0237 117.678 12.2005 117.022 11.8184L115.799 11.1422L114.935 11.7302Z" fill="#F4F6F6"/>
<path d="M131.034 12.2888C129.723 12.9356 127.755 13.6411 126.652 13.9351C125.072 14.3173 124.624 14.5231 124.624 14.9347C124.624 15.2581 124.773 15.5815 124.922 15.6697C125.101 15.7873 125.221 18.7566 125.221 23.5781C125.221 30.1047 125.161 31.3983 124.773 31.6923C124.088 32.2508 124.237 32.5154 125.31 32.7212C126.86 33.074 129.693 34.4264 131.899 35.9258L133.956 37.3369L135.835 35.4848L137.743 33.6326L139.293 35.1026C142.036 37.6897 141.648 37.6897 144.332 35.0438C145.614 33.7796 146.687 32.633 146.687 32.5154C146.687 32.3684 146.359 32.2802 145.942 32.2802C145.286 32.2802 143.229 31.6041 143.05 31.3395C143.02 31.2807 142.901 27.4294 142.811 22.7549L142.662 14.2879L138.041 12.7004C135.507 11.8478 133.42 11.1422 133.42 11.1422C133.42 11.1422 132.346 11.6714 131.034 12.2888ZM134.105 16.4047L135.954 17.0808V24.2249V31.3689L133.807 30.2223L131.631 29.0757L131.541 22.2551C131.482 16.8456 131.541 15.4933 131.839 15.5815C132.048 15.6697 133.062 16.0225 134.105 16.4047Z" fill="#F4F6F6"/>
<path d="M147.343 35.6907C144.839 36.7197 145.584 40.5122 148.297 40.5122C150.623 40.5122 151.875 37.9251 150.295 36.2787C149.46 35.3967 148.506 35.1909 147.343 35.6907ZM149.549 36.3375C151.1 37.3371 150.295 39.9242 148.416 39.9242C146.747 39.9242 145.852 38.1603 146.866 36.7491C147.313 36.1023 148.834 35.8671 149.549 36.3375Z" fill="#F4F6F6"/>
<path d="M147.492 36.8958C147.164 37.1898 147.254 39.042 147.581 39.042C147.76 39.042 147.88 38.8362 147.88 38.5422C147.88 38.1012 147.909 38.1012 148.416 38.5422C149.162 39.2184 149.221 39.189 149.191 38.1306C149.162 37.0134 148.118 36.2491 147.492 36.8958ZM148.625 37.572C148.536 37.719 148.327 37.866 148.148 37.866C147.999 37.866 147.88 37.719 147.88 37.572C147.88 37.3956 148.088 37.278 148.357 37.278C148.595 37.278 148.714 37.3956 148.625 37.572Z" fill="#F4F6F6"/>
<path d="M56.2003 41.6001C55.3953 42.0411 53.6959 42.6879 52.4735 43.0407C51.2511 43.3935 50.2076 43.8345 50.1479 44.0109C50.0883 44.1873 50.1778 44.3343 50.3566 44.3343C50.5952 44.3343 50.6846 47.1272 50.6846 53.5656C50.6846 61.5034 50.625 62.8264 50.2374 63.1498C49.8498 63.4732 50.2374 63.7672 52.9803 65.0901C54.7394 65.9427 56.7667 67.1187 57.4823 67.7067L58.7643 68.7944L62.7296 66.2073C66.4863 63.7378 66.695 63.5614 66.3074 63.0028C66.0688 62.6794 65.89 62.062 65.89 61.621C65.89 61.1506 65.7409 60.7978 65.5918 60.7978C65.4129 60.7978 63.952 61.474 62.3122 62.2678L59.3308 63.7378V54.8004V45.863L60.7321 46.2746C63.3856 47.0684 65.3831 46.5392 66.5161 44.7165C66.8738 44.1579 67.1124 43.6875 67.0527 43.6581C66.9931 43.5993 65.8601 43.3641 64.5185 43.0995C63.2067 42.8349 61.2687 42.2175 60.255 41.7177C59.2115 41.218 58.2277 40.8064 58.019 40.8064C57.8401 40.8358 57.0351 41.1886 56.2003 41.6001ZM57.2438 53.8008C57.2438 60.7096 57.1543 62.5912 56.886 62.503C56.5879 62.3854 56.4686 60.2687 56.409 53.5068C56.3493 45.6866 56.3792 44.6577 56.7966 44.8047C57.1841 44.9517 57.2438 46.1864 57.2438 53.8008Z" fill="#F4F6F6"/>
<path d="M73.4926 48.9203C72.5683 49.6553 70.9881 50.2727 69.1695 50.6549C67.798 50.9489 67.5595 51.0959 67.6489 51.5663C67.7384 51.8602 67.8278 54.6238 67.8874 57.6813C68.0067 62.9438 67.9769 63.3259 67.3806 64.0903C67.0526 64.5313 66.7843 64.9429 66.7843 65.0311C66.7843 65.0899 67.4998 65.2957 68.3645 65.4721C70.3918 65.9131 72.6876 66.9715 73.9994 68.0886L75.0429 69L75.7584 68.2356C76.5336 67.4124 80.2902 65.5015 81.1549 65.5015C81.9002 65.5015 81.8108 65.2369 80.6778 63.9727L79.7238 62.885L77.5175 63.7081L75.3112 64.5607L74.0292 63.9433C72.8068 63.3553 72.7472 63.2671 72.7472 61.9736C72.7472 60.6506 72.8068 60.533 75.2218 58.2693C76.5634 57.0051 78.5908 55.153 79.694 54.1534C81.8704 52.2424 82.1686 51.4781 80.8865 51.2429C79.1275 50.9195 77.0107 50.1257 75.6392 49.3025C73.9994 48.3029 74.2379 48.3617 73.4926 48.9203ZM76.9808 53.7124C77.1001 53.83 76.2057 54.8884 74.9833 56.0937L72.7472 58.2693V55.153V52.0366L74.7746 52.7716C75.8777 53.1832 76.8616 53.6242 76.9808 53.7124Z" fill="#F4F6F6"/>
<path d="M84.2258 49.7727C83.0929 50.4783 82.3177 51.0957 82.5264 51.0957C82.7351 51.0957 83.242 51.419 83.6296 51.8306C84.3749 52.5362 84.3749 52.5362 84.3749 58.7395V64.9133H83.719C83.0631 64.9427 83.0929 64.9721 83.9277 65.5601C84.4345 65.9129 85.329 66.736 85.9253 67.3534L87.0284 68.5L87.8632 67.5592C88.3104 67.03 89.2049 66.2069 89.8608 65.7659C90.8148 65.0603 90.9043 64.9133 90.3974 64.9133C89.7415 64.9133 89.7415 64.8545 89.7415 58.5925C89.7415 51.6248 89.6521 51.8894 91.6198 52.7126C93.2894 53.3888 95.1677 53.3006 95.9429 52.4774C96.8075 51.566 96.7777 51.2133 95.7938 50.6841C95.3168 50.4489 94.5118 49.8315 94.005 49.3317L93.0211 48.4203L91.3515 49.4787L89.6819 50.5371L88.1315 49.5081C87.2967 48.9201 86.5514 48.4497 86.4619 48.4497C86.3725 48.4497 85.3886 49.0377 84.2258 49.7727Z" fill="#F4F6F6"/>
<path d="M103.605 48.7145C103.247 49.3025 101.041 50.2433 99.1629 50.6549C97.851 50.9195 97.374 51.1253 97.4932 51.4193C97.5827 51.6545 97.6721 54.4474 97.7318 57.6519C97.8212 63.2084 97.7914 63.5023 97.1951 64.2667L96.5392 65.0605L98.4473 65.5309C100.683 66.0895 102.472 66.9421 103.844 68.1474L104.857 69L105.573 68.265C106.348 67.4712 110.105 65.5015 110.91 65.5015C111.685 65.5015 111.804 65.2075 111.327 64.4725C110.969 63.9139 110.91 62.738 110.969 57.8283C111.029 54.5356 111.178 51.5957 111.327 51.3017C111.506 50.8901 111.446 50.8019 110.88 50.8019C110.492 50.7725 108.972 50.3021 107.481 49.7435C103.903 48.3617 103.844 48.3617 103.605 48.7145ZM105.901 53.0362C106.02 53.1244 106.139 53.683 106.139 54.271C106.139 55.2412 105.901 55.6234 104.351 57.1227L102.562 58.8573V55.2706V51.6839L104.112 52.3012C104.977 52.6246 105.782 52.9774 105.901 53.0362ZM106.139 61.0916C106.139 64.7665 106.139 64.7665 103.844 63.7375C102.711 63.2378 102.562 63.0614 102.562 62.2088C102.562 61.4444 102.89 60.9152 104.261 59.5628C105.215 58.6221 106.02 57.8577 106.05 57.8577C106.11 57.8577 106.139 59.2983 106.139 61.0916Z" fill="#F4F6F6"/>
</svg>
