<svg width="250" height="39" viewBox="0 0 250 39" fill="none" xmlns="http://www.w3.org/2000/svg">
<path d="M0 28.0352V25.2921H9.5856V28.7812C9.52095 32.7741 15.821 33.2887 16.6368 29.5969C16.8934 28.7193 16.8716 27.7834 16.5744 26.9187C14.7192 22.241 2.0424 20.1235 0.432 12.8325C0.104137 11.2309 0.083774 9.58122 0.372 7.97191C1.3608 2.1175 6.492 0 12.8616 0C17.9328 0 24.9216 1.18387 24.9216 9.03306V11.5885H16.0176V9.34587C16.2557 5.43089 10.0982 4.8411 9.4008 8.53497C9.30072 9.15636 9.32191 9.79133 9.4632 10.4046C10.512 14.5771 24.0576 16.8221 25.5432 24.3609C25.9145 26.3147 25.9348 28.3193 25.6032 30.2802C24.7368 36.2574 19.4184 38.5 12.9888 38.5C6.24 38.5 0 36.0697 0 28.0352ZM116.141 27.9125V25.1694H125.604V28.5959C125.474 32.5532 131.746 33.1208 132.583 29.4669C132.84 28.6099 132.819 27.6933 132.523 26.8489C130.728 22.241 118.174 20.1114 116.568 12.8325C116.24 11.2521 116.218 9.62296 116.506 8.03447C117.502 2.24262 122.64 0.125125 128.88 0.125125C133.891 0.125125 140.815 1.37156 140.815 9.09562V11.5885H131.974V9.40844C132.224 5.52903 126.113 4.8982 125.482 8.53738C125.38 9.1586 125.401 9.79361 125.542 10.407C126.53 14.5795 139.942 16.7619 141.437 24.2357C141.808 26.1685 141.828 28.1525 141.497 30.0926C140.63 36.0745 135.374 38.2546 129.017 38.2546C122.328 38.2594 116.141 35.8218 116.141 27.9125ZM150.031 29.2239C149.945 28.4369 149.925 27.6441 149.971 26.8538V1.05875H159V27.6598C158.988 28.1179 159.008 28.5762 159.06 29.0314C159.996 32.5165 164.928 32.5165 165.864 29.0314C165.918 28.5763 165.938 28.1179 165.926 27.6598V1.05875H174.96V26.8489C174.96 27.5347 174.898 28.8437 174.898 29.2191C174.281 35.9566 169.022 38.1222 162.468 38.1222C155.914 38.1222 150.65 35.9446 150.031 29.2191V29.2239ZM224.369 28.8485C224.277 28.0587 224.235 27.2639 224.244 26.4688V11.3383C224.244 10.715 224.304 9.59372 224.366 8.96809C225.17 2.24262 230.551 0.125125 236.921 0.125125C243.23 0.125125 248.794 2.24262 249.415 8.9705C249.489 9.75824 249.509 10.5502 249.475 11.3407V12.5125H240.446V10.5297C240.448 10.0698 240.407 9.61061 240.324 9.15819C239.233 5.66497 234.302 5.66497 233.21 9.15819C233.106 9.71316 233.065 10.2783 233.088 10.8426V27.2869C233.077 27.745 233.098 28.2032 233.15 28.6584C234.091 32.2433 239.76 32.2399 240.569 28.6657C240.652 28.2135 240.63 27.752 240.631 27.2941V22.0533H236.983V16.8197H249.6V26.4688C249.61 27.2599 249.567 28.0507 249.475 28.8365C248.858 35.3767 243.235 37.6819 236.921 37.6819C230.606 37.6819 224.986 35.3839 224.369 28.8437V28.8485ZM98.5176 37.0033L98.2776 3.73691L92.0856 37.0033H83.0568L76.932 3.73691L76.692 37.0033H67.7808L68.5224 1.12131H83.0568L87.5712 29.1565L92.0856 1.12131H106.618L107.422 37.0033H98.5176ZM51.0216 37.0033L46.1976 3.73691L41.2488 37.0033H31.6032L38.16 1.12131H54.0552L60.612 37.0033H51.0216ZM202.166 36.6303L193.2 6.79044L193.694 36.6279H184.91V1.12131H198.144L206.544 30.0276L206.062 1.12131H214.906V36.6328L202.166 36.6303Z" fill="white"/>
</svg>
