<svg width="127" height="40" viewBox="0 0 127 40" fill="none" xmlns="http://www.w3.org/2000/svg">
<path d="M0 12.3054H14.3642V37.907H27.2109V12.3054H41.5593V1.9702H0V12.3054Z" fill="white"/>
<path d="M66.7384 30.5066C63.7537 30.5066 61.5132 29.648 59.6104 27.886C57.7499 26.1609 56.4146 23.5272 56.4146 19.9404V19.4021C56.4146 15.8336 57.7499 13.1579 59.6104 11.4459C61.5132 9.67084 63.7695 8.85158 66.7384 8.85158C73.7529 8.85158 75.2493 13.0056 75.6979 15.7128H87.0985C86.8187 10.2459 84.2008 6.40434 80.5009 3.8468C76.8195 1.29977 72.5416 0 66.8625 0C59.8822 0 54.9235 1.5466 50.8462 4.98377C46.7399 8.49185 44.5548 14.0139 44.5548 19.5334V19.8143C44.5548 25.8484 46.4575 30.3727 50.6668 34.1801C54.6042 37.7407 60.3467 39.3687 66.7279 39.3477C72.3833 39.3477 77.2391 38.0269 80.5986 35.514C84.3037 32.728 86.8346 28.8182 87.1381 23.6611H75.7639C75.4498 25.8274 74.0775 30.5066 66.7384 30.5066Z" fill="white"/>
<path d="M106.381 28.0527V1.97064H94.0115V37.8943H126.669V28.0527H106.381Z" fill="white"/>
</svg>
